<?xml version="1.0" encoding="UTF-8" standalone="no"?>
<svg
   xmlns:dc="http://purl.org/dc/elements/1.1/"
   xmlns:cc="http://creativecommons.org/ns#"
   xmlns:rdf="http://www.w3.org/1999/02/22-rdf-syntax-ns#"
   xmlns:svg="http://www.w3.org/2000/svg"
   xmlns="http://www.w3.org/2000/svg"
   xmlns:sodipodi="http://sodipodi.sourceforge.net/DTD/sodipodi-0.dtd"
   xmlns:inkscape="http://www.inkscape.org/namespaces/inkscape"
   width="45"
   height="45"
   id="svg2"
   version="1.1"
   inkscape:version="0.48.3.1 r9886"
   sodipodi:docname="activity-tictactoe.svg">
  <metadata
     id="metadata20">
    <rdf:RDF>
      <cc:Work
         rdf:about="">
        <dc:format>image/svg+xml</dc:format>
        <dc:type
           rdf:resource="http://purl.org/dc/dcmitype/StillImage" />
        <dc:title></dc:title>
      </cc:Work>
    </rdf:RDF>
  </metadata>
  <defs
     id="defs18" />
  <sodipodi:namedview
     pagecolor="#ffffff"
     bordercolor="#666666"
     borderopacity="1"
     objecttolerance="10"
     gridtolerance="10"
     guidetolerance="10"
     inkscape:pageopacity="0"
     inkscape:pageshadow="2"
     inkscape:window-width="1366"
     inkscape:window-height="744"
     id="namedview16"
     showgrid="false"
     inkscape:zoom="3.7083822"
     inkscape:cx="-23.039496"
     inkscape:cy="47.129391"
     inkscape:window-x="0"
     inkscape:window-y="24"
     inkscape:window-maximized="1"
     inkscape:current-layer="svg2" />
  <path
     style="fill:none;stroke:#000000;stroke-width:3.95408821;stroke-opacity:1"
     d="m 22.704596,2.7620667 0,39.8572223"
     id="path3133"
     inkscape:connector-curvature="0" />
  <path
     style="fill:none;stroke:#000000;stroke-width:3.90870357;stroke-opacity:1"
     d="m 42.809967,22.619696 -39.8572218,0"
     id="path3141"
     inkscape:connector-curvature="0" />
  <path
     inkscape:connector-curvature="0"
     style="fill:#000000;fill-opacity:1;stroke:#000000;stroke-width:3.59450102;stroke-opacity:1"
     d="m 38.144426,11.789171 a 4.7400025,4.7400022 0 0 1 -9.480004,0 4.7400025,4.7400022 0 1 1 9.480004,0 z"
     id="path8-7-1" />
  <path
     inkscape:connector-curvature="0"
     style="fill:none;stroke:#000000;stroke-width:3.59450102;stroke-opacity:1"
     d="m 16.585168,12.05438 a 4.7400025,4.7400022 0 0 1 -9.4800034,0 4.7400025,4.7400022 0 1 1 9.4800034,0 z"
     id="path8-7-1-8" />
  <path
     inkscape:connector-curvature="0"
     style="fill:none;stroke:#000000;stroke-width:3.59450102;stroke-opacity:1"
     d="m 38.093051,33.336766 a 4.7400025,4.7400022 0 0 1 -9.480003,0 4.7400025,4.7400022 0 1 1 9.480003,0 z"
     id="path8-7-1-8-2" />
  <path
     inkscape:connector-curvature="0"
     style="fill:#000000;fill-opacity:1;stroke:#000000;stroke-width:3.59450102;stroke-opacity:1"
     d="m 16.672429,33.271995 a 4.7400025,4.7400022 0 0 1 -9.4800042,0 4.7400025,4.7400022 0 1 1 9.4800042,0 z"
     id="path8-7-1-2" />
</svg>
